<?xml version="1.0" encoding="utf-8"?>
<!-- Generator: Adobe Illustrator 21.1.0, SVG Export Plug-In . SVG Version: 6.00 Build 0)  -->
<svg version="1.1" id="Слой_1" xmlns="http://www.w3.org/2000/svg" xmlns:xlink="http://www.w3.org/1999/xlink" x="0px" y="0px"
	 viewBox="0 0 80 80" style="enable-background:new 0 0 80 80;" xml:space="preserve">
<style type="text/css">
	.st0{fill:#EBF9FF;stroke:url(#SVGID_1_);stroke-miterlimit:10;}
	.st1{fill:url(#SVGID_2_);}
</style>
<linearGradient id="SVGID_1_" gradientUnits="userSpaceOnUse" x1="39.872" y1="80.0937" x2="39.872" y2="-0.9063">
	<stop  offset="0.1297" style="stop-color:#17568A"/>
	<stop  offset="0.9432" style="stop-color:#7FC7FF"/>
</linearGradient>
<rect x="-0.1" y="-0.4" class="st0" width="80" height="80"/>
<g>
	<g id="Layer_2_5_">
		<linearGradient id="SVGID_2_" gradientUnits="userSpaceOnUse" x1="39.872" y1="63.9204" x2="39.872" y2="15.267">
			<stop  offset="0.1297" style="stop-color:#17568A"/>
			<stop  offset="0.9432" style="stop-color:#7FC7FF"/>
		</linearGradient>
		<path class="st1" d="M53.1,48c-6.1-2.2-8-4-8-8c0-0.4,0.1-0.8,0.2-1c0.5-1.2,1.8-1.4,2.5-4.9c0.3-1.8,2,0,2.3-4.1
			c0-1.6-0.9-2-0.9-2s0.5-2.4,0.6-4.3c0.2-2.3-1.4-8.3-9.8-8.3c0,0-0.1,0-0.1,0c0,0-0.1,0-0.1,0c-8.4,0-10,6-9.8,8.3
			c0.2,1.9,0.6,4.3,0.6,4.3s-0.9,0.4-0.9,2c0.3,4.1,1.9,2.3,2.3,4.1c0.7,3.5,2,3.7,2.5,4.9c0.1,0.3,0.2,0.6,0.2,1c0,3.9-1.9,5.8-8,8
			c-6.1,2.2-8.8,4.4-8.8,6c0,1.5,0,10,0,10h22h0h22c0,0,0-8.5,0-10C61.9,52.4,59.1,50.2,53.1,48z"/>
	</g>
</g>
</svg>
