<?xml version="1.0" encoding="utf-8"?>
<!-- Generator: Adobe Illustrator 21.1.0, SVG Export Plug-In . SVG Version: 6.00 Build 0)  -->
<svg version="1.1" id="Слой_1" xmlns="http://www.w3.org/2000/svg" xmlns:xlink="http://www.w3.org/1999/xlink" x="0px" y="0px"
	 viewBox="0 0 80 80" style="enable-background:new 0 0 80 80;" xml:space="preserve">
<style type="text/css">
	.st0{fill:#EBF9FF;stroke:url(#SVGID_1_);stroke-miterlimit:10;}
	.st1{fill:url(#SVGID_2_);}
</style>
<linearGradient id="SVGID_1_" gradientUnits="userSpaceOnUse" x1="39.872" y1="81.0141" x2="39.872" y2="1.408202e-02">
	<stop  offset="0.1297" style="stop-color:#17568A"/>
	<stop  offset="0.9432" style="stop-color:#7FC7FF"/>
</linearGradient>
<rect x="-0.1" y="0.5" class="st0" width="80" height="80"/>
<g>
	<g id="Layer_2_25_">
		<linearGradient id="SVGID_2_" gradientUnits="userSpaceOnUse" x1="39.872" y1="64.873" x2="39.872" y2="16.1552">
			<stop  offset="0.1297" style="stop-color:#17568A"/>
			<stop  offset="0.9432" style="stop-color:#7FC7FF"/>
		</linearGradient>
		<path class="st1" d="M53.2,48.8c-6.1-2.2-8.1-1.1-8.1-5.1c0-0.2,0-0.5,0-0.9h0.3c4.2,0.3,8.2,0.6,9.1,0c1.4-1-3.5-2.5-3.5-15.5
			c0-6.5-4.3-11.2-10.8-11.2c-0.1,0-0.1,0-0.2,0c0,0,0,0,0,0v0c0,0,0,0-0.1,0c0,0,0,0,0,0c0,0,0,0,0,0c0,0,0,0,0,0c0,0,0,0,0,0
			c0,0,0,0,0,0c0,0,0,0,0,0c0,0,0,0-0.1,0v0c0,0,0,0,0,0c-0.1,0-0.1,0-0.2,0c-6.5,0-10.8,4.6-10.8,11.2c0,12.9-5,14.5-3.5,15.5
			c0.9,0.6,4.9,0.3,9.1,0h0.3c0,0.4,0,0.7,0,0.9c0,4-2,2.9-8.1,5.1c-6.1,2.2-7.9,4.5-7.9,6c0,1.5,0,10.1,0,10.1h21.2h0h0h0h0h21.2
			c0,0,0-8.5,0-10.1C61.1,53.3,59.3,51,53.2,48.8z"/>
	</g>
</g>
</svg>
